<?xml version="1.0" encoding="UTF-8" standalone="no"?>
<!DOCTYPE svg PUBLIC "-//W3C//DTD SVG 1.1//EN" "http://www.w3.org/Graphics/SVG/1.1/DTD/svg11.dtd">
<svg version="1.1" xmlns="http://www.w3.org/2000/svg" xmlns:xlink="http://www.w3.org/1999/xlink" preserveAspectRatio="xMidYMid meet" viewBox="0 0 640 640" width="640" height="640"><defs><path d="M339.19 10.78L348.64 11.74L357.96 13.07L367.17 14.76L376.25 16.81L385.19 19.21L393.99 21.95L402.63 25.02L411.12 28.42L419.44 32.13L427.58 36.16L435.55 40.48L443.32 45.11L450.9 50.02L458.27 55.21L465.43 60.67L472.37 66.4L479.08 72.39L485.56 78.62L491.8 85.1L497.78 91.81L503.51 98.76L508.97 105.92L514.17 113.29L519.08 120.86L523.7 128.64L528.03 136.6L532.05 144.75L535.77 153.07L539.17 161.55L542.24 170.2L544.97 178.99L547.37 187.93L549.42 197.01L551.12 206.22L552.45 215.55L553.41 224.99L553.49 226.33L475.59 226.33L475.49 225.28L474.61 219.12L473.49 213.04L472.14 207.05L470.55 201.15L468.75 195.34L466.72 189.64L464.48 184.03L462.02 178.54L459.37 173.17L456.51 167.91L453.46 162.78L450.22 157.78L446.79 152.91L443.18 148.18L439.4 143.6L435.45 139.17L431.33 134.89L427.06 130.78L422.62 126.82L418.04 123.04L413.32 119.44L408.45 116.01L403.45 112.77L398.32 109.71L393.06 106.86L387.68 104.2L382.19 101.75L376.59 99.51L370.88 97.48L365.07 95.67L359.17 94.09L353.18 92.73L347.1 91.62L340.94 90.74L334.71 90.1L328.41 89.72L322.04 89.59L315.67 89.72L309.37 90.1L303.14 90.74L296.98 91.62L290.9 92.73L284.91 94.09L279.01 95.67L273.2 97.48L267.49 99.51L261.89 101.75L256.4 104.2L251.02 106.86L245.77 109.71L240.63 112.77L235.63 116.01L230.77 119.44L226.04 123.04L221.46 126.82L217.03 130.78L212.75 134.89L208.63 139.17L204.68 143.6L200.9 148.18L197.29 152.91L193.87 157.78L190.62 162.78L187.57 167.91L184.72 173.17L182.06 178.54L179.61 184.03L177.36 189.64L175.34 195.34L173.53 201.15L171.95 207.05L170.59 213.04L169.47 219.12L168.6 225.28L168.49 226.33L86.51 226.33L86.59 224.99L87.55 215.55L88.88 206.22L90.58 197.01L92.63 187.93L95.03 178.99L97.76 170.2L100.83 161.55L104.23 153.07L107.95 144.75L111.97 136.6L116.3 128.64L120.92 120.86L125.83 113.29L131.03 105.92L136.49 98.76L142.22 91.81L148.2 85.1L154.44 78.62L160.92 72.39L167.63 66.4L174.57 60.67L181.73 55.21L189.1 50.02L196.68 45.11L204.45 40.48L212.42 36.16L220.56 32.13L228.88 28.42L237.37 25.02L246.01 21.95L254.81 19.21L263.75 16.81L272.83 14.76L282.04 13.07L291.36 11.74L300.81 10.78L310.35 10.2L320 10L329.65 10.2L339.19 10.78Z" id="aJm9nLrz5"></path><path d="M15.1 210L624.9 210L624.9 541.63L15.1 541.63L15.1 210Z" id="c1KUFTu00P"></path></defs><g><g><g><use xlink:href="#aJm9nLrz5" opacity="1" fill="#ffffff" fill-opacity="1"></use><g><use xlink:href="#aJm9nLrz5" opacity="1" fill-opacity="0" stroke="#000000" stroke-width="20" stroke-opacity="1"></use></g></g><g><use xlink:href="#c1KUFTu00P" opacity="1" fill="#ffffff" fill-opacity="1"></use><g><use xlink:href="#c1KUFTu00P" opacity="1" fill-opacity="0" stroke="#000000" stroke-width="20" stroke-opacity="1"></use></g></g></g></g></svg>