<?xml version="1.0" encoding="UTF-8" standalone="no"?>
<!DOCTYPE svg PUBLIC "-//W3C//DTD SVG 1.1//EN" "http://www.w3.org/Graphics/SVG/1.1/DTD/svg11.dtd">
<svg version="1.1" xmlns="http://www.w3.org/2000/svg" xmlns:xlink="http://www.w3.org/1999/xlink" preserveAspectRatio="xMidYMid meet" viewBox="0 0 640 640" width="640" height="640"><defs><path d="M281.32 0.86L291.81 1.93L302.17 3.4L312.4 5.28L322.48 7.56L332.41 10.22L342.18 13.25L351.78 16.66L361.2 20.43L370.44 24.55L379.48 29.02L388.33 33.82L396.96 38.95L405.37 44.4L413.55 50.16L421.5 56.23L429.21 62.59L436.66 69.23L443.85 76.15L450.77 83.34L457.41 90.79L463.77 98.5L469.84 106.45L475.6 114.63L481.05 123.04L486.18 131.67L490.98 140.52L495.45 149.56L499.57 158.8L503.34 168.22L506.75 177.82L509.78 187.59L512.44 197.52L514.72 207.6L516.6 217.83L518.07 228.19L519.14 238.68L519.78 249.28L520 260L519.78 270.72L519.14 281.32L518.07 291.81L516.6 302.17L514.72 312.4L512.44 322.48L509.78 332.41L506.75 342.18L503.34 351.78L499.57 361.2L495.45 370.44L490.98 379.48L486.18 388.33L481.05 396.96L475.79 405.08L640 569.29L569.29 640L405.08 475.79L396.96 481.05L388.33 486.18L379.48 490.98L370.44 495.45L361.2 499.57L351.78 503.34L342.18 506.75L332.41 509.78L322.48 512.44L312.4 514.72L302.17 516.6L291.81 518.07L281.32 519.14L270.72 519.78L260 520L249.28 519.78L238.68 519.14L228.19 518.07L217.83 516.6L207.6 514.72L197.52 512.44L187.59 509.78L177.82 506.75L168.22 503.34L158.8 499.57L149.56 495.45L140.52 490.98L131.67 486.18L123.04 481.05L114.63 475.6L106.45 469.84L98.5 463.77L90.79 457.41L83.34 450.77L76.15 443.85L69.23 436.66L62.59 429.21L56.23 421.5L50.16 413.55L44.4 405.37L38.95 396.96L33.82 388.33L29.02 379.48L24.55 370.44L20.43 361.2L16.66 351.78L13.25 342.18L10.22 332.41L7.56 322.48L5.28 312.4L3.4 302.17L1.93 291.81L0.86 281.32L0.22 270.72L0 260L0.22 249.28L0.86 238.68L1.93 228.19L3.4 217.83L5.28 207.6L7.56 197.52L10.22 187.59L13.25 177.82L16.66 168.22L20.43 158.8L24.55 149.56L29.02 140.52L33.82 131.67L38.95 123.04L44.4 114.63L50.16 106.45L56.23 98.5L62.59 90.79L69.23 83.34L76.15 76.15L83.34 69.23L90.79 62.59L98.5 56.23L106.45 50.16L114.63 44.4L123.04 38.95L131.67 33.82L140.52 29.02L149.56 24.55L158.8 20.43L168.22 16.66L177.82 13.25L187.59 10.22L197.52 7.56L207.6 5.28L217.83 3.4L228.19 1.93L238.68 0.86L249.28 0.22L260 0L270.72 0.22L281.32 0.86ZM246.84 100.11L240.37 100.76L233.98 101.67L227.67 102.83L221.45 104.24L215.32 105.88L209.29 107.75L203.37 109.86L197.56 112.18L191.86 114.72L186.28 117.48L180.82 120.44L175.49 123.61L170.3 126.97L165.25 130.53L160.35 134.27L155.6 138.19L151 142.29L146.56 146.56L142.29 151L138.19 155.6L134.27 160.35L130.53 165.25L126.97 170.3L123.61 175.49L120.44 180.82L117.48 186.28L114.72 191.86L112.18 197.56L109.86 203.37L107.75 209.29L105.88 215.32L104.24 221.45L102.83 227.67L101.67 233.98L100.76 240.37L100.11 246.84L99.71 253.39L99.57 260L99.71 266.61L100.11 273.16L100.76 279.63L101.67 286.02L102.83 292.33L104.24 298.55L105.88 304.68L107.75 310.71L109.86 316.63L112.18 322.44L114.72 328.14L117.48 333.72L120.44 339.18L123.61 344.51L126.97 349.7L130.53 354.75L134.27 359.65L138.19 364.4L142.29 369L146.56 373.44L151 377.71L155.6 381.81L160.35 385.73L165.25 389.47L170.3 393.03L175.49 396.39L180.82 399.56L186.28 402.52L191.86 405.28L197.56 407.82L203.37 410.14L209.29 412.25L215.32 414.12L221.45 415.76L227.67 417.17L233.98 418.33L240.37 419.24L246.84 419.89L253.39 420.29L260 420.43L266.61 420.29L273.16 419.89L279.63 419.24L286.02 418.33L292.33 417.17L298.55 415.76L304.68 414.12L310.71 412.25L316.63 410.14L322.44 407.82L328.14 405.28L333.72 402.52L339.18 399.56L344.51 396.39L349.7 393.03L354.75 389.47L359.65 385.73L364.4 381.81L369 377.71L373.44 373.44L377.71 369L381.81 364.4L385.73 359.65L389.47 354.75L393.03 349.7L396.39 344.51L399.56 339.18L402.52 333.72L405.28 328.14L407.82 322.44L410.14 316.63L412.25 310.71L414.12 304.68L415.76 298.55L417.17 292.33L418.33 286.02L419.24 279.63L419.89 273.16L420.29 266.61L420.43 260L420.29 253.39L419.89 246.84L419.24 240.37L418.33 233.98L417.17 227.67L415.76 221.45L414.12 215.32L412.25 209.29L410.14 203.37L407.82 197.56L405.28 191.86L402.52 186.28L399.56 180.82L396.39 175.49L393.03 170.3L389.47 165.25L385.73 160.35L381.81 155.6L377.71 151L373.44 146.56L369 142.29L364.4 138.19L359.65 134.27L354.75 130.53L349.7 126.97L344.51 123.61L339.18 120.44L333.72 117.48L328.14 114.72L322.44 112.18L316.63 109.86L310.71 107.75L304.68 105.88L298.55 104.24L292.33 102.83L286.02 101.67L279.63 100.76L273.16 100.11L266.61 99.71L260 99.57L253.39 99.71L246.84 100.11Z" id="dpRlVupV3"></path></defs><g><g><g><use xlink:href="#dpRlVupV3" opacity="1" fill="#000000" fill-opacity="1"></use></g></g></g></svg>